<svg width="24" height="24" viewBox="0 0 24 24" fill="none" xmlns="http://www.w3.org/2000/svg">
<g clip-path="url(#clip0_307_9)">
<path d="M14 3V7C14 7.26522 14.1054 7.51957 14.2929 7.70711C14.4804 7.89464 14.7348 8 15 8H19" stroke="#396891" stroke-width="2" stroke-linecap="round" stroke-linejoin="round"/>
<path d="M5 12V5C5 4.46957 5.21071 3.96086 5.58579 3.58579C5.96086 3.21071 6.46957 3 7 3H14L19 8V12" stroke="#396891" stroke-width="2" stroke-linecap="round" stroke-linejoin="round"/>
<path d="M21.9997 16.3464C21.9997 16.678 21.9303 16.9812 21.7914 17.2559C21.6572 17.5254 21.4512 17.743 21.1735 17.9089C20.9005 18.0695 20.5649 18.1499 20.1669 18.1499H19.4935V20H18.1328V14.5195H20.1669C20.5603 14.5195 20.8935 14.5973 21.1666 14.7527C21.4443 14.9082 21.6526 15.1233 21.7914 15.398C21.9303 15.6726 21.9997 15.9888 21.9997 16.3464ZM20.035 16.9372C20.4191 16.9372 20.6112 16.7402 20.6112 16.3464C20.6112 15.9473 20.4191 15.7478 20.035 15.7478H19.4935V16.9372H20.035Z" fill="#396891"/>
<path d="M16.6006 17.1859C16.8876 17.2585 17.1143 17.4191 17.281 17.6679C17.4522 17.9115 17.5378 18.1913 17.5378 18.5074C17.5378 18.9739 17.3943 19.3392 17.1074 19.6035C16.8204 19.8678 16.4178 20 15.8994 20H13.4766V14.5195H15.8231C16.3229 14.5195 16.714 14.6439 16.9963 14.8927C17.2833 15.1414 17.4267 15.4912 17.4267 15.9421C17.4267 16.2634 17.3504 16.5329 17.1976 16.7506C17.0495 16.9631 16.8505 17.1082 16.6006 17.1859ZM14.8373 16.6962H15.5245C15.867 16.6962 16.0383 16.5381 16.0383 16.222C16.0383 15.8955 15.867 15.7322 15.5245 15.7322H14.8373V16.6962ZM15.6287 18.7718C15.9712 18.7718 16.1424 18.6111 16.1424 18.2898C16.1424 18.1239 16.0961 17.997 16.0036 17.9089C15.9156 17.8208 15.7884 17.7767 15.6217 17.7767H14.8373V18.7718H15.6287Z" fill="#396891"/>
<path d="M11.0326 15.74V16.634H12.5946V17.7923H11.0326V18.7795H12.8029V20H9.67188V14.5195H12.8029V15.74H11.0326Z" fill="#396891"/>
<path d="M9.09505 14.5195L7.89403 20H6.22093L5.54752 16.6418L4.86023 20H3.18714L2 14.5195H3.47177L4.04104 18.2665L4.81164 14.5195H6.30424L7.05401 18.2354L7.62327 14.5195H9.09505Z" fill="#396891"/>
</g>
<defs>
<clipPath id="clip0_307_9">
<rect width="24" height="24" fill="white"/>
</clipPath>
</defs>
</svg>
